<?xml version="1.0" encoding="utf-8"?>
<!-- Generator: Adobe Illustrator 26.0.1, SVG Export Plug-In . SVG Version: 6.00 Build 0)  -->
<svg version="1.1" id="Layer_1" xmlns="http://www.w3.org/2000/svg" xmlns:xlink="http://www.w3.org/1999/xlink" x="0px" y="0px"
	 viewBox="0 0 926 603" style="enable-background:new 0 0 926 603;" xml:space="preserve">
<style type="text/css">
	.st0{fill:#003547;}
</style>
<path class="st0" d="M778,12c-2.5,4-2.2,3.9-6,2c-2.6-1.4-2.9-1.3-4.4,1c-2.1,3.2-2,3.8,0.3,2.5c1.5-0.8,2.8-0.5,5.5,1.1l3.5,2
	l1.4-2.3c0.8-1.3,1.8-3.3,2.2-4.6c0.5-1.7,1.4-2.2,3.8-2.2l3.2-0.1l-3.4-1.4c-1.8-0.8-3.5-1.5-3.6-1.5C780.3,8.5,779.2,10.1,778,12z
	"/>
<path class="st0" d="M834.4,17.4l-2.5,3.9l-5.6-2.4c-3.1-1.4-5.6-2.4-5.7-2.2c-0.2,0.2-1.3,1.8-2.5,3.6c-2.8,4-2.3,4.9,1.2,2.2
	l2.6-2.1l4.6,3.6c2.6,1.9,5.3,3.5,6.1,3.5c0.7,0,2.5-2.2,3.9-4.9c2.4-4.8,2.6-5,6-4.4c1.9,0.3,3.5,0.3,3.5,0c0-0.6-7.4-4.7-8.4-4.7
	C837.3,13.5,835.9,15.3,834.4,17.4z"/>
<path class="st0" d="M668.3,18.5c-4.3,0.6-8.3,3.3-8.3,5.5c0,0.9-3.9,1.1-15.3,0.7c-11.2-0.3-19.5,0-30.8,1.4
	c-9.5,1.1-22.2,1.9-33.1,1.9c-9.8,0-17.8,0.1-17.8,0.2s3,1.2,6.8,2.3c4.4,1.4,13,2.6,25.2,3.6c18.2,1.5,27.8,3.2,33.2,6l2.7,1.4
	l-2.9,4.7c-1.6,2.5-5.3,7.6-8.2,11.3l-5.3,6.7l-8,0.7c-4.4,0.3-13,0.6-19.1,0.6c-13.1,0-30.4,1.6-39.2,3.6
	c-12.3,2.8-19.9,8.6-19,14.6c0.2,1.6-0.8,2.4-5.7,4.3c-10,3.7-15,6.7-36.5,21c-18.4,12.4-36.2,22.5-39.6,22.5
	c-0.7,0-1.5,0.4-1.8,0.8c-0.6,1,9.3-0.4,14.4-2c1.9-0.6,9.8-3.9,17.5-7.4c14.6-6.4,21.6-8.8,29.8-10l4.7-0.6v3.8
	c0,6.4-2.7,20.9-7.4,40c-4.9,19.8-8.2,35.9-9,44.4l-0.5,5.5l3.8-8c2.1-4.4,9.2-16.7,15.9-27.3c6.6-10.5,13.3-22.3,14.9-26.2
	c1.5-3.8,3-7,3.3-7c0.3,0,3.4,1.5,7,3.3l6.5,3.2l5.2,15.3c10.4,30.2,16.1,54,27.3,112.7c3.3,17.6,7.1,36.6,8.4,42.2l2.3,10.3
	l-3.1,0.5c-3.3,0.5-39.9,4.9-121.6,14.5c-154.9,18.2-215.2,27.3-272,41.1c-46.1,11.3-79.4,25-101.9,42c-7.1,5.3-19.8,18.6-22.1,21.9
	c-4,5.7-124.5,211.8-9.9,209.9c105.6-1.8,721.1-5.4,857-19.2c22.3-2.3-71.1-183.1-74.3-187.2c-6.9-8.8-6.3-9.3-15.9-20.1
	c-11.5-13-25.1-24.9-39.7-34.8c-13.3-8.9-44.5-24.5-66-33.1c-13.6-5.3-70-25.7-84.4-30.4c-3.7-1.3-7-2.6-7.2-3
	c-0.2-0.3,0-4.2,0.5-8.6s2.2-20.8,3.9-36.5c6.5-60.2,12.6-101.8,21-144.5c5.9-29.7,4.5-28.3,12.4-12.5c6.1,12.1,17.3,30.6,18.1,29.8
	c0.2-0.2-0.7-4-2-8.5c-1.3-4.4-3.6-17.7-5-29.4c-2.3-18.2-5-31.4-7.9-37.9c-0.8-2,3.1-3.5,12.9-5c7.4-1.2,14.7-0.9,35.5,1.7
	c17.9,2.1,32.1,2.1,39.5-0.2l6-1.9l-6.5-0.6c-8.7-0.9-11.6-1.9-32.2-11.6c-20.4-9.6-27.5-12.2-35.8-13.1c-6.5-0.6-7.4-1.8-5.8-7.7
	c1.7-6.4,6-6.1,25.5,1.5c8.6,3.3,18.6,6.7,22.2,7.5c7.3,1.5,16.1,1.9,16.1,0.6s-48.6-24.8-57-27.6C680.3,18.9,673.5,17.8,668.3,18.5
	z M601.9,78.2c-8.1,8.6-7.5,8.3-13.4,8.3c-6.5,0-17.2,2.3-23.2,5c-5.2,2.3-5.5,2.1-7.5-4.2c-1-3.3-0.9-4.1,0.7-5.8
	c2.4-2.7,6.4-3.6,23.1-5.5c7.8-0.9,16.4-2.2,19-3C608.5,70.8,608.6,71.2,601.9,78.2z M642,79.2l4.2,5.8l-0.7,7
	c-1.2,12.9-7.5,62.7-11.6,91c-8,56.1-23.2,139.9-25.2,139.2c-1.4-0.4-6.6-15.9-12.2-36.1c-4.8-17.2-8.1-32.4-17.4-80.1
	c-3.4-17.1-6.9-34.5-8-38.8c-1.1-4.7-1.4-7.4-0.7-6.9c13.4,10.3,32.7,22.7,39.9,25.7l3.8,1.6l-5.5-5.6c-5.8-5.8-11.5-13.1-23.6-30.5
	c-4.1-5.8-10.8-14-14.9-18.4l-7.6-7.8l5.4-4.9c6.7-6,18.3-12.1,36-18.8c17.3-6.6,28.1-12.3,33.9-17.8c2.6-2.5,3.8-4.1,2.7-3.7
	c-3.8,1.4-15.9,4.4-16.7,4.2c-0.7-0.3,12.1-10.6,13.4-10.7C637.6,73.5,639.8,76.1,642,79.2z"/>
<path class="st0" d="M330,25l-2.5,1.4l3,0.1c2.6,0,3.3,0.6,4.4,3.6c1.6,4.4,3.3,5.1,6.7,2.9c2.1-1.3,3.1-1.5,5-0.6
	c2.8,1.2,2.9,0.9,0.8-2.4c-1.5-2.3-1.8-2.4-4.9-1.1c-3.3,1.4-3.4,1.4-5.7-2C334.2,23.1,333.6,22.9,330,25z"/>
<path class="st0" d="M754,37.1c-2.5,2-4.7,3.8-5,4.1c-0.2,0.2,1.8,0.1,4.5-0.2l5-0.7l3.6,5.4c1.9,2.9,4.3,5.4,5.2,5.6
	c0.9,0.2,4.1-2.1,7.4-5.3l5.8-5.6l4.4,2.1c2.4,1.1,4.5,2,4.6,1.8c0.2-0.2-1.6-2.4-4-5.1l-4.3-4.7l-6.7,4.2l-6.7,4.2l-4.5-4.7
	c-2.4-2.6-4.5-4.7-4.6-4.6C758.6,33.6,756.5,35.2,754,37.1z"/>
<path class="st0" d="M358.1,63l-4.1,4.5l-6.5-4c-3.6-2.2-6.8-4-7-4c-0.7,0-7.9,8-8.4,9.2c-0.2,0.5,1.9-0.2,4.5-1.5l4.9-2.5l3.6,4.2
	c2,2.2,5,4.9,6.7,5.9l3.1,1.7l3.3-4.4c1.8-2.4,3.8-5.1,4.3-6.1c0.9-1.4,1.7-1.5,5.5-0.6c2.4,0.5,4.6,0.9,4.7,0.7
	c0.3-0.3-9.2-7.6-9.9-7.6C362.5,58.5,360.4,60.5,358.1,63z"/>
<path class="st0" d="M128.2,93.1c-1.8,2.7-2.8,3.4-4.3,3c-1-0.3-2.7-0.8-3.6-1.1c-1.3-0.4-2.3,0.4-3.5,2.5c-1.9,3.3-1.4,3.8,1.3,1.4
	c1.7-1.5,2-1.4,4.9,0.6c3.9,2.8,5.3,2.2,7-2.9c1.2-3.9,1.6-4.1,4.2-3.6c1.5,0.4,2.8,0.4,2.8,0.1c0-0.5-5.4-3.6-6.2-3.6
	C130.6,89.5,129.5,91.1,128.2,93.1z"/>
<path class="st0" d="M70.3,106.6c-1.8,1.2-3.3,2.2-3.3,2.4c0,0.2,1.5,0.1,3.3-0.2c3-0.5,3.3-0.2,5.4,4.1c2.7,5.5,4.4,5.8,9.6,1.5
	c3.9-3.2,4.5-3.2,8.7-0.2l2.4,1.8l-1.9-3.3c-3.1-5.2-3.7-5.5-9.1-3.2l-4.9,2.1l-2.2-2.8c-1.3-1.5-2.3-3.1-2.3-3.6
	C76,103.9,73.6,104.5,70.3,106.6z"/>
<path class="st0" d="M100.6,118c-2.5,2-4.6,3.7-4.6,3.9c0,0.2,2.1-0.1,4.7-0.6c3.9-0.9,4.8-0.8,5.7,0.5c5.2,7.6,7,9.7,8.4,9.7
	c0.9,0,4.2-2.5,7.3-5.6l5.6-5.6l4.1,2.1c2.3,1.2,4.4,2.1,4.7,2.1c0.4,0-1.3-2.2-3.7-4.9l-4.3-4.8l-6.1,3.8c-3.4,2.2-6.5,3.9-7.1,3.9
	c-0.5,0-2.7-1.8-4.8-4c-2.1-2.2-4.2-4-4.6-4C105.6,114.5,103.2,116.1,100.6,118z"/>
<path class="st0" d="M77.2,137.2l-5.3,4.6l-4.5-3.3c-4.4-3.1-4.6-3.2-6.6-1.4c-1.1,1.1-2.9,3.1-3.9,4.6l-1.9,2.7l4-1.6l4-1.6
	l4.5,4.2c2.4,2.2,5.1,4.1,6,4.1c0.8,0,3.2-2.6,5.2-5.8c2.1-3.1,3.8-5.9,4-6.1c0.1-0.2,2.1,0.1,4.5,0.7c2.3,0.6,4.4,1,4.6,0.8
	c0.3-0.4-7.9-6.6-8.7-6.6C82.7,132.5,80.1,134.6,77.2,137.2z"/>
</svg>
