<?xml version="1.0" encoding="utf-8"?>
<!-- Generator: Adobe Illustrator 26.0.1, SVG Export Plug-In . SVG Version: 6.00 Build 0)  -->
<svg version="1.1" id="Layer_1" xmlns="http://www.w3.org/2000/svg" xmlns:xlink="http://www.w3.org/1999/xlink" x="0px" y="0px"
	 viewBox="0 0 100 100" style="enable-background:new 0 0 100 100;" xml:space="preserve">
<style type="text/css">
	.st0{fill:#02485B;}
</style>
<path class="st0" d="M15.21,41.78c-0.69-0.19-1.39-0.34-2.06-0.58c-0.75-0.27-1.48-0.62-2.21-0.95c-0.12-0.05-0.24-0.15-0.33-0.24
	c-0.9-0.91-1.68-1.9-2.33-3.01c-0.2-0.34-0.21-0.65-0.04-1c0.07-0.15,0.09-0.34,0.07-0.5c-0.13-1.25-0.28-2.5-0.42-3.75
	c-0.01-0.11-0.02-0.27,0.04-0.33c0.24-0.23,0.17-0.5,0.15-0.77c-0.1-1.35-0.03-2.7,0.25-4.02c0.02-0.08,0.03-0.21,0.09-0.24
	c0.53-0.27,0.4-0.85,0.59-1.27c0.31-0.66,0.61-1.32,0.98-1.94c0.25-0.41,0.34-0.4,0.85-0.37c0.82-1.68,2.43-2.42,4.08-3.26
	c-0.43-0.65-0.81-1.33-1.27-1.94c-0.99-1.3-2.26-2.29-3.67-3.1c-0.27-0.16-0.65-0.26-0.54-0.7c0.11-0.42,0.48-0.38,0.8-0.4
	c1.02-0.07,2,0.14,2.96,0.47c0.12,0.04,0.23,0.08,0.43,0.15c-0.09-0.28-0.15-0.52-0.24-0.74c-0.5-1.34-1.3-2.5-2.15-3.63
	c-0.07-0.09-0.14-0.18-0.21-0.27c-0.17-0.22-0.25-0.45-0.04-0.68c0.2-0.21,0.43-0.18,0.65-0.04c0.72,0.46,1.47,0.87,2.15,1.39
	c0.94,0.71,1.82,1.5,2.74,2.27c0.06-0.29,0.13-0.63,0.18-0.97c0.34-2.49,0.44-5,0.33-7.51c-0.01-0.32-0.01-0.64,0.36-0.79
	c0.1,0.01,0.2,0.02,0.3,0.03c0.11,0.18,0.25,0.34,0.33,0.53c0.98,2.39,1.67,4.85,1.97,7.42c0.01,0.04,0.01,0.09,0.03,0.2
	c0.1-0.12,0.16-0.19,0.21-0.27c1.24-1.98,2.82-3.67,4.59-5.19c0.23-0.19,0.46-0.29,0.71-0.07c0.25,0.22,0.17,0.47,0.01,0.71
	c-0.95,1.5-1.72,3.07-2.19,4.79c-0.06,0.22-0.11,0.44-0.17,0.7c0.43-0.23,0.8-0.45,1.2-0.63c0.88-0.4,1.77-0.77,2.66-1.15
	c0.26-0.11,0.53-0.14,0.7,0.15c0.18,0.31-0.01,0.5-0.23,0.71c-0.72,0.67-1.45,1.32-2.13,2.03c-0.49,0.51-0.84,1.13-1.04,1.88
	c0.11-0.02,0.2-0.03,0.29-0.04c0.77-0.12,1.54-0.25,2.3-0.37c0.06-0.01,0.13-0.01,0.19-0.01c0.27,0,0.51,0.06,0.57,0.37
	c0.06,0.3-0.13,0.43-0.35,0.55c-0.6,0.32-1.21,0.62-1.78,0.98c-1.12,0.71-2.08,1.59-2.78,2.73c-0.12,0.19-0.22,0.39-0.33,0.59
	c-0.17,0.32-0.15,0.57,0.04,0.93c0.31,0.58,0.74,1.06,1.08,1.61c0.35,0.57,0.58,1.22,0.88,1.83c0.05,0.11,0.18,0.19,0.27,0.28
	c0.14,0.15,0.34,0.27,0.41,0.44c0.4,0.96,0.48,1.97,0.51,3c0,0.16,0,0.33,0.01,0.52c0.51-0.02,0.65,0.31,0.63,0.71
	c-0.05,0.98-0.14,1.96-0.2,2.93c-0.01,0.13,0.05,0.27,0.08,0.4c0.04,0.19,0.13,0.38,0.13,0.58c-0.03,1.14-0.3,2.22-0.6,3.33
	c-0.36,1.33-1.21,2.26-1.99,3.28c-0.07,0.09-0.12,0.22-0.1,0.32c0.05,0.3-0.07,0.48-0.32,0.62c-1.61,0.85-3.32,1.35-5.15,1.45
	c-0.31,0.02-0.62,0.04-0.93,0.07C16.57,41.91,15.89,41.84,15.21,41.78z M19.03,18.04c0.97-1.1,2.11-1.93,3.44-2.45
	c0.6-0.24,1.03-0.5,1.06-1.2c0-0.02,0.02-0.05,0.03-0.07c0.41-0.75,0.82-1.51,1.22-2.24c0.07,0.01,0.04,0,0.03,0.01
	c-0.21,0.11-0.43,0.21-0.64,0.33c-1.92,1.07-3.59,2.41-4.7,4.37c-0.1,0.19-0.31,0.38-0.51,0.43c-0.29,0.07-0.41-0.23-0.52-0.45
	c-1.17-2.37-2.88-4.27-4.99-5.83c-0.07-0.05-0.15-0.09-0.31-0.18c0.66,1.07,1.18,2.08,1.4,3.2c0.08,0.43,0.25,0.71,0.64,0.87
	c0.05,0.02,0.09,0.05,0.13,0.08C16.69,15.75,17.89,16.82,19.03,18.04z M23.23,8.6c-0.07,0.06-0.14,0.11-0.19,0.18
	c-0.64,0.83-1.33,1.62-1.9,2.49c-0.53,0.82-0.94,1.72-1.4,2.59c-0.04,0.07-0.06,0.14-0.09,0.21c-0.14,0.28-0.37,0.35-0.63,0.22
	c-0.25-0.12-0.31-0.33-0.21-0.6c0.14-0.37,0.38-0.75,0.37-1.12c-0.04-1.71-0.35-3.38-0.8-5.02c-0.1-0.37-0.21-0.74-0.31-1.11
	C18,6.49,17.99,6.52,17.99,6.56c-0.01,2.01-0.14,4.01-0.58,5.98c-0.13,0.59-0.03,1.02,0.37,1.42c0.09,0.09,0.15,0.2,0.22,0.31
	c0.33,0.51,0.65,1.01,0.99,1.54c0.72-1.12,1.6-2.04,2.64-2.82c0.33-0.25,0.57-0.5,0.58-0.94c0.01-0.25,0.09-0.5,0.17-0.74
	C22.65,10.42,22.94,9.54,23.23,8.6z M18.42,18.75c-1.85-1.97-3.9-3.67-6.66-4.27c0.04,0.09,0.1,0.14,0.16,0.19
	c1.68,1.25,3.01,2.78,3.88,4.7c0.03,0.07,0.06,0.15,0.11,0.19c0.53,0.39,1.06,0.78,1.53,1.12C17.75,20.09,18.07,19.45,18.42,18.75z
	 M17.01,31.38c-0.5,0.37-1.05,0.74-1.56,1.17c-0.25,0.21-0.43,0.52-0.62,0.8c-0.05,0.07-0.05,0.23-0.01,0.31
	c0.41,0.75,0.93,1.41,1.71,1.81c0.11,0.06,0.26,0.02,0.38,0.05c0.41,0.08,0.57-0.24,0.81-0.47c0.5-0.49,1.02-0.97,1.6-1.53
	C18.56,32.8,17.81,32.11,17.01,31.38z M12.08,30.32c0.2,0.35,0.49,0.91,0.82,1.45c0.17,0.29,0.38,0.56,0.6,0.82
	c0.24,0.27,0.47,0.21,0.72-0.05c0.41-0.42,0.84-0.83,1.29-1.21c0.27-0.24,0.59-0.42,0.95-0.67c-0.83-0.73-1.63-1.42-2.57-2.24
	C13.33,29,12.73,29.63,12.08,30.32z M12.83,33.36c-0.65-1.06-1.31-2.13-1.95-3.18c-0.78,0.3-1.35,0.75-1.76,1.38
	c-0.06,0.09-0.1,0.25-0.06,0.33c0.57,0.99,1.15,1.98,1.69,2.9C11.47,34.29,12.17,33.81,12.83,33.36z M17.89,36.19
	c0.35,0.3,0.61,0.54,0.9,0.77c0.22,0.18,0.43,0.42,0.78,0.22c0.08-0.05,0.26,0.05,0.38,0.12c0.16,0.09,0.31,0.21,0.46,0.31
	c0.03,0.03,0.06,0.05,0.09,0.08c0.37-0.34,0.74-0.68,1.1-1.03c0.29-0.28,0.56-0.57,0.82-0.83c-0.72-0.69-1.41-1.35-2.11-2.02
	C19.5,34.61,18.71,35.38,17.89,36.19z M18.49,20.72c0.79-0.13,1.57-0.23,2.34-0.39c0.21-0.04,0.48-0.23,0.55-0.42
	c0.38-1.04,0.95-1.94,1.72-2.72c0.46-0.46,0.95-0.87,1.43-1.31C22.39,16.01,19.16,18.6,18.49,20.72z M19.97,29.46
	c-0.53,0.34-1.13,0.71-1.71,1.11c-0.39,0.27-0.4,0.36-0.04,0.68c0.56,0.5,1.14,0.99,1.7,1.48c0.15,0,0.32,0.02,0.48,0.01
	c0.1-0.01,0.24-0.01,0.3-0.08c0.54-0.57,1.07-1.15,1.61-1.73C21.53,30.44,20.78,29.97,19.97,29.46z M13.77,33.93
	c-0.08,0.05-0.21,0.12-0.33,0.21c-0.55,0.35-1.1,0.7-1.65,1.06c-0.23,0.15-0.24,0.33-0.13,0.58c0.36,0.74,0.89,1.31,1.52,1.77
	c0.14-0.14,0.24-0.31,0.4-0.4c0.32-0.18,0.66-0.32,0.99-0.48c0.38-0.18,0.77-0.35,1.08-0.49C15.03,35.43,14.42,34.7,13.77,33.93z
	 M11.6,25.71c-0.4,0.27-0.78,0.51-1.15,0.78c-0.27,0.2-0.53,0.42-0.78,0.65c-0.07,0.07-0.12,0.25-0.08,0.32
	c0.31,0.54,0.63,1.08,0.99,1.59c0.18,0.25,0.79,0.35,0.97,0.19c0.56-0.51,1.1-1.05,1.65-1.59C12.74,27.09,12.18,26.41,11.6,25.71z
	 M20.05,28.09c0.58-0.62,1.15-1.23,1.67-1.79c-0.58-0.65-1.2-1.35-1.85-2.07c-0.71,0.43-1.38,0.93-1.7,1.79
	c-0.1,0.26-0.05,0.44,0.17,0.62C18.94,27.13,19.52,27.64,20.05,28.09z M17.58,21.82c-0.07,0.03-0.13,0.04-0.19,0.07
	c-0.67,0.27-1.22,0.71-1.68,1.25c-0.05,0.06-0.08,0.16-0.06,0.23c0.23,0.79,0.54,1.55,1.11,2.16c0.2,0.21,0.51,0.17,0.64-0.1
	c0.33-0.68,0.82-1.21,1.43-1.63c0.22-0.15,0.21-0.29,0.08-0.46c-0.38-0.47-0.76-0.93-1.15-1.4C17.71,21.9,17.64,21.87,17.58,21.82z
	 M22.51,39.82c-0.2-0.17-0.34-0.34-0.51-0.43c-0.74-0.37-1.48-0.73-1.93-0.95c-1.02,0.77-1.9,1.43-2.8,2.11
	c0.16,0.49,0.16,0.49,0.74,0.45c0.08,0,0.15,0,0.23-0.01C19.73,40.93,21.13,40.52,22.51,39.82z M17.02,26.67
	c-0.63,0.26-1.53,1.04-1.86,1.62c0.01,0.01,0.01,0.03,0.02,0.03c0.64,0.58,1.28,1.16,1.94,1.72c0.07,0.06,0.26,0.03,0.35-0.03
	c0.37-0.23,0.72-0.5,1.09-0.75c0.25-0.17,0.5-0.32,0.81-0.52C18.56,28.04,17.81,27.37,17.02,26.67z M21.28,33.46
	c0.49,0.46,0.99,0.93,1.49,1.41c0.22,0.21,0.49,0.14,0.64-0.02c0.56-0.6,1.08-1.24,1.62-1.86c-0.42-0.46-0.8-0.87-1.17-1.28
	c-0.41-0.44-0.48-0.44-0.94-0.05c-0.15,0.13-0.3,0.27-0.43,0.42C22.09,32.53,21.7,32.97,21.28,33.46z M24.54,28.92
	c-0.59-0.64-1.22-1.31-1.89-2.02c-0.57,0.37-1.19,0.82-1.58,1.5c-0.24,0.42-0.22,0.54,0.19,0.8c0.6,0.39,1.2,0.77,1.83,1.12
	c0.11,0.06,0.39-0.02,0.48-0.13C23.93,29.79,24.24,29.33,24.54,28.92z M14.63,23.61c-0.77,0.35-1.42,0.93-1.86,1.75
	c-0.05,0.09-0.02,0.29,0.05,0.38c0.41,0.52,0.85,1.03,1.28,1.53c0.16,0.19,0.37,0.27,0.58,0.08c0.44-0.41,0.87-0.83,1.24-1.18
	C15.5,25.31,15.07,24.47,14.63,23.61z M18.73,38.14c-0.63-0.55-1.18-1.04-1.74-1.53c-0.4,0.18-0.83,0.35-1.25,0.55
	c-0.42,0.2-0.83,0.42-1.33,0.67c0.85,0.66,1.6,1.23,2.37,1.82C17.42,39.15,18.07,38.65,18.73,38.14z M20.78,23.75
	c0.47,0.77,1.03,1.42,1.76,1.89c0.41,0.27,1.23-0.14,1.18-0.63c-0.1-0.95-0.45-1.81-1.06-2.53C22.01,22.91,21.4,23.33,20.78,23.75z
	 M12.5,38.2c-0.75-0.61-1.39-1.31-1.77-2.22c-0.02-0.06-0.16-0.12-0.24-0.1c-0.54,0.09-1.02,0.3-1.52,0.67
	c0.68,0.89,1.33,1.74,1.96,2.56C11.5,38.78,11.99,38.5,12.5,38.2z M16.38,40.91c-0.54-1.24-1.83-1.54-2.55-2.4
	c-0.68,0.39-1.32,0.76-2.01,1.15C13.3,40.37,14.78,40.73,16.38,40.91z M21.51,38.02c0.49,0.3,0.98,0.6,1.54,0.93
	c0.48-0.66,0.98-1.33,1.47-2c-0.43-0.29-0.8-0.53-1.14-0.76C22.76,36.8,22.13,37.41,21.51,38.02z M13.19,21.55
	c-0.85,0.59-1.55,1.29-1.75,2.38c-0.08,0.43-0.05,0.46,0.38,0.49c0.12,0.01,0.24,0.05,0.28,0.06c0.6-0.55,1.17-1.08,1.73-1.59
	C13.63,22.48,13.42,22.03,13.19,21.55z M19.89,23.18c0.09-0.03,0.2-0.05,0.27-0.1c0.47-0.32,0.93-0.63,1.39-0.96
	c0.54-0.39,0.56-0.53,0.2-1.03c-1,0.18-1.97,0.36-3.04,0.55c0.27,0.31,0.48,0.51,0.65,0.74C19.55,22.62,19.7,22.89,19.89,23.18z
	 M16.45,21.09c-0.16-0.12-0.43-0.31-0.69-0.52c-0.2-0.16-0.4-0.17-0.63-0.07c-1.13,0.48-1.24,0.57-0.57,1.76
	c0.19,0.33,0.35,0.34,0.62,0.07C15.6,21.93,16.01,21.52,16.45,21.09z M25.4,29.62c-0.38,0.09-1.04,0.84-1.04,1.19
	c0,0.04,0.02,0.1,0.05,0.13c0.24,0.26,0.49,0.52,0.79,0.84C25.27,31.01,25.34,30.31,25.4,29.62z M24.67,27.72
	c0.04-0.01,0.07-0.02,0.11-0.04c-0.08-0.66-0.15-1.33-0.24-2.04c-0.88,0.81-0.89,1.13-0.12,1.86
	C24.51,27.58,24.59,27.65,24.67,27.72z M25.36,34.21c-0.03-0.01-0.06-0.03-0.09-0.04c-0.39,0.45-0.77,0.89-1.19,1.38
	c0.24,0.16,0.45,0.3,0.74,0.5C25.01,35.38,25.18,34.8,25.36,34.21z M9.8,29.64c-0.27-0.39-0.52-0.75-0.83-1.2
	c0,0.65,0,1.19,0.01,1.8C9.28,30.02,9.53,29.83,9.8,29.64z M9.81,25.65c0.04,0.02,0.08,0.04,0.12,0.06c0.3-0.21,0.61-0.41,0.91-0.62
	c-0.18-0.28-0.33-0.52-0.53-0.83C10.12,24.78,9.97,25.22,9.81,25.65z M9.16,33.92c-0.03,0.01-0.05,0.02-0.08,0.03
	c0.05,0.44,0.1,0.88,0.15,1.35c0.21-0.08,0.39-0.15,0.6-0.24C9.59,34.66,9.38,34.29,9.16,33.92z"/>
<path class="st0" d="M37.52,90.37c-0.51-0.29-1.05-0.54-1.54-0.86c-0.55-0.36-1.06-0.79-1.59-1.19c-0.09-0.07-0.16-0.16-0.22-0.26
	c-0.55-0.9-0.98-1.85-1.28-2.87c-0.09-0.31-0.04-0.56,0.16-0.81c0.08-0.1,0.13-0.25,0.15-0.39c0.14-1.03,0.26-2.06,0.39-3.09
	c0.01-0.09,0.03-0.22,0.1-0.25c0.24-0.14,0.23-0.37,0.27-0.59c0.19-1.1,0.5-2.16,0.99-3.17c0.03-0.06,0.07-0.16,0.12-0.17
	c0.48-0.11,0.48-0.6,0.72-0.9c0.37-0.47,0.75-0.94,1.16-1.37c0.28-0.28,0.35-0.26,0.75-0.13c0.99-1.19,2.41-1.46,3.9-1.81
	c-0.21-0.61-0.39-1.22-0.64-1.8c-0.54-1.24-1.36-2.27-2.33-3.2c-0.19-0.18-0.47-0.34-0.3-0.67c0.17-0.32,0.46-0.21,0.72-0.16
	c0.83,0.14,1.58,0.5,2.28,0.95c0.09,0.06,0.17,0.11,0.31,0.2c-0.02-0.24-0.02-0.44-0.04-0.64c-0.14-1.17-0.55-2.25-1.01-3.33
	c-0.04-0.09-0.08-0.17-0.12-0.26c-0.1-0.21-0.11-0.41,0.1-0.55c0.2-0.13,0.38-0.06,0.53,0.09c0.49,0.51,1.01,0.99,1.45,1.53
	c0.61,0.75,1.17,1.56,1.75,2.35c0.1-0.23,0.23-0.48,0.33-0.74c0.76-1.93,1.33-3.92,1.73-5.95c0.05-0.26,0.12-0.51,0.44-0.57
	c0.08,0.03,0.16,0.05,0.24,0.08c0.06,0.16,0.14,0.32,0.16,0.49c0.32,2.1,0.39,4.21,0.13,6.32c0,0.04-0.01,0.07-0.01,0.16
	c0.1-0.08,0.17-0.12,0.22-0.18c1.38-1.35,2.97-2.39,4.69-3.26c0.22-0.11,0.42-0.14,0.58,0.08c0.16,0.22,0.04,0.41-0.13,0.57
	c-1.05,1.01-1.98,2.13-2.69,3.41c-0.09,0.16-0.17,0.33-0.27,0.53c0.39-0.1,0.73-0.2,1.09-0.27c0.78-0.15,1.57-0.27,2.36-0.4
	c0.23-0.04,0.45-0.01,0.53,0.25c0.09,0.28-0.1,0.4-0.32,0.52c-0.71,0.39-1.42,0.77-2.1,1.21c-0.49,0.31-0.89,0.74-1.2,1.3
	c0.09,0.01,0.17,0.02,0.24,0.02c0.64,0.05,1.28,0.1,1.92,0.15c0.05,0,0.1,0.02,0.15,0.03c0.22,0.05,0.4,0.15,0.39,0.41
	c-0.01,0.25-0.19,0.32-0.39,0.37c-0.54,0.14-1.09,0.26-1.62,0.44c-1.03,0.35-1.98,0.86-2.76,1.65c-0.13,0.13-0.25,0.27-0.38,0.41
	c-0.19,0.22-0.23,0.43-0.15,0.75c0.14,0.53,0.39,1,0.55,1.5c0.17,0.53,0.23,1.09,0.35,1.63c0.02,0.1,0.11,0.18,0.16,0.28
	c0.08,0.14,0.22,0.28,0.24,0.44c0.13,0.84,0,1.67-0.18,2.5c-0.03,0.13-0.06,0.26-0.1,0.41c0.41,0.09,0.46,0.37,0.36,0.69
	c-0.23,0.77-0.49,1.54-0.73,2.31c-0.03,0.1-0.01,0.22-0.01,0.34c0,0.16,0.03,0.33-0.01,0.49c-0.24,0.91-0.67,1.72-1.13,2.55
	c-0.55,0.99-1.41,1.57-2.23,2.24c-0.07,0.06-0.14,0.16-0.14,0.24c-0.02,0.25-0.15,0.37-0.38,0.43c-1.46,0.37-2.93,0.43-4.4,0.15
	c-0.25-0.05-0.51-0.09-0.76-0.13C38.58,90.74,38.05,90.55,37.52,90.37z M45.21,72.11c0.99-0.69,2.07-1.13,3.23-1.29
	c0.52-0.07,0.93-0.2,1.08-0.75c0.01-0.02,0.02-0.03,0.04-0.05c0.48-0.52,0.95-1.05,1.41-1.55c0.05,0.02,0.03,0.01,0.02,0.01
	c-0.19,0.04-0.38,0.09-0.57,0.14c-1.75,0.49-3.35,1.23-4.61,2.59c-0.12,0.13-0.33,0.25-0.49,0.24c-0.24,0-0.29-0.26-0.33-0.47
	c-0.48-2.12-1.47-3.98-2.85-5.65c-0.04-0.05-0.1-0.1-0.22-0.2c0.32,0.98,0.54,1.9,0.49,2.84c-0.02,0.36,0.06,0.62,0.35,0.82
	c0.03,0.02,0.06,0.06,0.09,0.09C43.79,69.82,44.54,70.91,45.21,72.11z M50.42,65.37c-0.07,0.04-0.13,0.06-0.19,0.1
	c-0.67,0.54-1.38,1.04-2.01,1.62c-0.59,0.55-1.09,1.19-1.63,1.8c-0.04,0.05-0.08,0.1-0.12,0.15c-0.16,0.2-0.36,0.2-0.55,0.05
	c-0.18-0.15-0.19-0.33-0.05-0.53c0.18-0.27,0.45-0.53,0.51-0.83c0.3-1.37,0.38-2.77,0.34-4.18c-0.01-0.32-0.02-0.63-0.04-0.95
	c-0.06,0.03-0.08,0.06-0.09,0.09c-0.4,1.61-0.89,3.19-1.63,4.67c-0.22,0.45-0.22,0.81,0.02,1.21c0.05,0.09,0.08,0.19,0.12,0.29
	c0.16,0.47,0.32,0.94,0.49,1.42c0.79-0.75,1.68-1.32,2.66-1.74c0.31-0.13,0.55-0.29,0.65-0.64c0.05-0.2,0.17-0.38,0.28-0.56
	C49.6,66.71,50,66.06,50.42,65.37z M44.58,72.56c-1.09-1.94-2.4-3.7-4.5-4.72c0.01,0.08,0.05,0.14,0.09,0.19
	c1.1,1.33,1.86,2.82,2.19,4.52c0.01,0.06,0.02,0.13,0.05,0.18c0.34,0.42,0.7,0.83,1,1.19C43.78,73.49,44.16,73.05,44.58,72.56z
	 M40.99,82.39c-0.47,0.2-0.99,0.39-1.48,0.63c-0.24,0.12-0.44,0.33-0.65,0.52c-0.05,0.05-0.09,0.17-0.07,0.24
	c0.18,0.68,0.47,1.31,1.02,1.78c0.07,0.07,0.2,0.07,0.3,0.11c0.31,0.14,0.51-0.08,0.74-0.22c0.5-0.3,1-0.58,1.58-0.91
	C41.95,83.83,41.49,83.14,40.99,82.39z M37.25,80.58c0.09,0.32,0.22,0.82,0.37,1.32c0.08,0.27,0.19,0.53,0.32,0.77
	c0.14,0.26,0.33,0.26,0.58,0.1c0.41-0.26,0.83-0.5,1.27-0.72c0.27-0.14,0.56-0.22,0.89-0.35c-0.52-0.74-1.03-1.46-1.62-2.29
	C38.5,79.77,37.9,80.16,37.25,80.58z M37.25,83.16c-0.31-0.98-0.63-1.96-0.94-2.93c-0.69,0.09-1.22,0.34-1.68,0.76
	c-0.06,0.06-0.13,0.18-0.11,0.25c0.26,0.91,0.53,1.81,0.79,2.66C35.98,83.64,36.64,83.4,37.25,83.16z M40.76,86.42
	c0.22,0.31,0.39,0.55,0.57,0.79c0.14,0.19,0.26,0.42,0.58,0.33c0.07-0.02,0.2,0.09,0.28,0.17c0.11,0.1,0.21,0.23,0.31,0.34
	c0.02,0.03,0.04,0.06,0.06,0.08c0.36-0.2,0.72-0.4,1.08-0.61c0.28-0.17,0.56-0.34,0.82-0.5c-0.44-0.69-0.87-1.36-1.3-2.03
	C42.35,85.47,41.57,85.93,40.76,86.42z M44.26,74.14c0.66,0.05,1.31,0.12,1.95,0.15c0.18,0.01,0.43-0.09,0.52-0.23
	c0.51-0.76,1.14-1.37,1.91-1.84c0.45-0.28,0.93-0.51,1.4-0.77C48.3,71.14,45.21,72.58,44.26,74.14z M43.73,81.44
	c-0.49,0.17-1.05,0.35-1.59,0.56c-0.37,0.14-0.39,0.21-0.16,0.54c0.35,0.51,0.72,1.01,1.07,1.52c0.12,0.03,0.25,0.08,0.39,0.1
	c0.08,0.02,0.19,0.03,0.25,0c0.55-0.35,1.08-0.71,1.63-1.07C44.79,82.53,44.28,82,43.73,81.44z M37.9,83.8
	c-0.07,0.02-0.19,0.06-0.31,0.1c-0.51,0.17-1.02,0.35-1.53,0.52c-0.21,0.07-0.26,0.22-0.21,0.44c0.14,0.66,0.46,1.22,0.87,1.71
	c0.14-0.09,0.26-0.2,0.39-0.24c0.29-0.08,0.59-0.13,0.89-0.19c0.34-0.07,0.69-0.13,0.96-0.18C38.62,85.25,38.27,84.55,37.9,83.8z
	 M37.76,76.79c-0.37,0.14-0.73,0.26-1.07,0.4c-0.26,0.11-0.51,0.23-0.75,0.37c-0.07,0.04-0.14,0.18-0.13,0.24
	c0.15,0.49,0.3,0.99,0.49,1.46c0.09,0.24,0.56,0.44,0.74,0.34c0.55-0.3,1.09-0.63,1.63-0.95C38.41,78.13,38.09,77.47,37.76,76.79z
	 M44.06,80.36c0.58-0.38,1.16-0.76,1.69-1.1c-0.34-0.64-0.7-1.32-1.08-2.02c-0.65,0.2-1.29,0.48-1.71,1.1
	c-0.13,0.19-0.13,0.34,0.01,0.53C43.36,79.37,43.73,79.89,44.06,80.36z M43.31,74.85c-0.06,0.01-0.12,0.01-0.17,0.01
	c-0.59,0.08-1.11,0.33-1.59,0.67c-0.05,0.04-0.1,0.12-0.09,0.17c0.03,0.68,0.13,1.34,0.47,1.95c0.12,0.21,0.38,0.23,0.53,0.05
	c0.39-0.48,0.89-0.81,1.46-1.02c0.21-0.08,0.23-0.19,0.15-0.35c-0.21-0.45-0.43-0.9-0.65-1.34C43.4,74.94,43.35,74.9,43.31,74.85z
	 M43.75,90.23c-0.13-0.18-0.2-0.34-0.33-0.44c-0.52-0.44-1.04-0.87-1.36-1.14c-0.97,0.42-1.8,0.78-2.65,1.14
	c0.04,0.42,0.04,0.42,0.5,0.51c0.06,0.01,0.12,0.03,0.18,0.04C41.3,90.57,42.5,90.52,43.75,90.23z M41.91,78.63
	c-0.55,0.08-1.43,0.53-1.8,0.93c0,0.01,0,0.02,0.01,0.03c0.4,0.59,0.8,1.18,1.22,1.76c0.04,0.06,0.2,0.07,0.29,0.05
	c0.34-0.12,0.68-0.26,1.02-0.39c0.23-0.09,0.46-0.16,0.75-0.26C42.89,80.02,42.41,79.34,41.91,78.63z M44,84.89
	c0.3,0.47,0.61,0.94,0.92,1.42c0.14,0.21,0.37,0.21,0.51,0.11c0.57-0.37,1.11-0.78,1.66-1.18c-0.25-0.45-0.47-0.85-0.69-1.25
	c-0.24-0.43-0.3-0.45-0.74-0.22c-0.15,0.08-0.29,0.16-0.43,0.25C44.83,84.31,44.44,84.59,44,84.89z M47.5,81.9
	c-0.35-0.62-0.72-1.29-1.12-1.99c-0.53,0.18-1.11,0.42-1.56,0.9c-0.28,0.29-0.28,0.39,0,0.68c0.41,0.43,0.81,0.86,1.25,1.26
	c0.08,0.07,0.32,0.06,0.41-0.01C46.84,82.47,47.18,82.16,47.5,81.9z M40.6,75.71c-0.68,0.13-1.32,0.47-1.83,1.04
	c-0.06,0.07-0.07,0.23-0.03,0.31c0.23,0.5,0.48,0.99,0.73,1.48c0.09,0.18,0.24,0.29,0.45,0.17c0.43-0.24,0.86-0.49,1.22-0.71
	C40.96,77.24,40.79,76.48,40.6,75.71z M41.05,88.14c-0.4-0.56-0.74-1.06-1.1-1.57c-0.36,0.06-0.74,0.12-1.11,0.2
	c-0.38,0.08-0.75,0.17-1.19,0.28c0.56,0.69,1.04,1.3,1.54,1.92C39.8,88.7,40.42,88.42,41.05,88.14z M45.5,77.02
	c0.23,0.71,0.54,1.33,1.04,1.86c0.28,0.3,1.02,0.13,1.07-0.28c0.1-0.78-0.01-1.54-0.35-2.23C46.65,76.59,46.08,76.8,45.5,77.02z
	 M36.04,86.97c-0.48-0.64-0.85-1.32-0.98-2.12c-0.01-0.05-0.11-0.13-0.17-0.13c-0.45-0.03-0.88,0.04-1.34,0.24
	c0.37,0.84,0.73,1.65,1.07,2.43C35.13,87.24,35.58,87.11,36.04,86.97z M38.62,89.91c-0.19-1.1-1.16-1.59-1.58-2.42
	c-0.62,0.18-1.21,0.35-1.84,0.53C36.27,88.87,37.38,89.45,38.62,89.91z M43.3,88.59c0.33,0.33,0.67,0.67,1.05,1.05
	c0.51-0.43,1.04-0.87,1.57-1.31c-0.29-0.31-0.54-0.58-0.77-0.83C44.53,87.86,43.91,88.22,43.3,88.59z M39.85,73.78
	c-0.8,0.31-1.5,0.73-1.87,1.56c-0.15,0.33-0.13,0.36,0.21,0.47c0.09,0.03,0.18,0.09,0.21,0.11c0.59-0.33,1.15-0.63,1.69-0.93
	C40.02,74.61,39.94,74.21,39.85,73.78z M44.9,76.39c0.08-0.01,0.17,0,0.24-0.03c0.44-0.16,0.87-0.33,1.3-0.5
	c0.51-0.2,0.55-0.32,0.36-0.78c-0.84-0.05-1.65-0.1-2.54-0.15c0.16,0.3,0.28,0.5,0.38,0.72C44.73,75.88,44.8,76.12,44.9,76.39z
	 M42.55,74.04c-0.1-0.12-0.28-0.33-0.45-0.55c-0.13-0.17-0.29-0.22-0.49-0.18c-1,0.17-1.11,0.22-0.8,1.3
	c0.09,0.3,0.21,0.34,0.48,0.18C41.7,74.55,42.11,74.3,42.55,74.04z M48.05,82.63c-0.32,0-1,0.47-1.07,0.75
	c-0.01,0.04,0,0.08,0.02,0.11c0.14,0.26,0.29,0.51,0.47,0.83C47.68,83.71,47.87,83.17,48.05,82.63z M47.84,80.96
	c0.03,0,0.06-0.01,0.09-0.01c0.07-0.55,0.14-1.09,0.21-1.68c-0.86,0.48-0.93,0.73-0.46,1.47C47.73,80.81,47.79,80.89,47.84,80.96z
	 M47.12,86.29c-0.02-0.02-0.04-0.04-0.07-0.05c-0.4,0.28-0.79,0.57-1.22,0.87c0.16,0.18,0.3,0.33,0.5,0.55
	C46.61,87.16,46.87,86.72,47.12,86.29z M35.56,79.59c-0.14-0.36-0.27-0.7-0.43-1.12c-0.12,0.52-0.23,0.96-0.35,1.44
	C35.07,79.79,35.3,79.7,35.56,79.59z M36.34,76.4c0.03,0.02,0.06,0.05,0.08,0.07c0.28-0.11,0.57-0.21,0.85-0.32
	c-0.09-0.26-0.16-0.48-0.26-0.77C36.76,75.76,36.55,76.08,36.34,76.4z M34.21,82.9c-0.02,0-0.05,0.01-0.07,0.01
	c-0.05,0.36-0.09,0.72-0.14,1.11c0.18-0.03,0.34-0.05,0.53-0.08C34.41,83.57,34.31,83.24,34.21,82.9z"/>
<path class="st0" d="M80.72,64.42c-0.99,0.04-1.98,0.14-2.97,0.11c-1.11-0.04-2.22-0.2-3.33-0.32c-0.19-0.02-0.37-0.09-0.54-0.18
	c-1.58-0.82-3.04-1.81-4.36-3.01c-0.4-0.36-0.55-0.77-0.48-1.31c0.03-0.22-0.03-0.48-0.12-0.69c-0.7-1.6-1.43-3.19-2.14-4.79
	c-0.06-0.14-0.14-0.34-0.08-0.45c0.22-0.41,0.01-0.73-0.13-1.08c-0.7-1.75-1.18-3.56-1.36-5.44c-0.01-0.12-0.04-0.29,0.02-0.35
	c0.59-0.59,0.17-1.29,0.25-1.93c0.13-1,0.25-2.01,0.48-2.99c0.15-0.65,0.28-0.68,0.97-0.85c0.38-2.58,2.19-4.23,4.03-6.04
	c-0.84-0.69-1.63-1.42-2.51-2.04c-1.86-1.31-3.96-2.08-6.17-2.56c-0.43-0.09-0.98-0.07-1.02-0.7c-0.04-0.61,0.48-0.7,0.89-0.86
	c1.33-0.52,2.71-0.66,4.12-0.62c0.17,0,0.34,0.01,0.63,0.02c-0.24-0.34-0.42-0.62-0.62-0.89c-1.22-1.57-2.78-2.76-4.38-3.91
	c-0.13-0.09-0.26-0.18-0.39-0.27c-0.32-0.22-0.52-0.49-0.33-0.89c0.17-0.37,0.49-0.42,0.84-0.33c1.15,0.3,2.32,0.54,3.44,0.93
	c1.55,0.55,3.05,1.22,4.59,1.85c-0.05-0.41-0.09-0.89-0.17-1.36c-0.59-3.45-1.53-6.81-2.73-10.09c-0.15-0.42-0.28-0.85,0.14-1.2
	c0.14-0.03,0.27-0.06,0.41-0.09c0.22,0.19,0.48,0.35,0.67,0.57c2.3,2.75,4.25,5.73,5.74,9c0.03,0.06,0.06,0.11,0.13,0.25
	c0.08-0.21,0.13-0.33,0.16-0.45c0.81-3.15,2.19-6.06,3.9-8.81c0.22-0.35,0.49-0.58,0.9-0.4c0.43,0.18,0.42,0.55,0.32,0.94
	c-0.63,2.38-0.98,4.8-0.88,7.27c0.01,0.31,0.04,0.62,0.07,1.01c0.47-0.48,0.88-0.94,1.33-1.34c1-0.9,2.02-1.77,3.05-2.65
	c0.3-0.26,0.64-0.41,0.99-0.1c0.37,0.33,0.2,0.67,0,1.03c-0.68,1.19-1.37,2.36-1.97,3.59c-0.43,0.88-0.63,1.85-0.58,2.92
	c0.14-0.07,0.26-0.12,0.37-0.18c0.97-0.49,1.93-0.98,2.9-1.46c0.08-0.04,0.16-0.07,0.24-0.09c0.36-0.11,0.7-0.14,0.92,0.25
	c0.21,0.37,0.01,0.63-0.23,0.88c-0.66,0.68-1.34,1.34-1.95,2.06c-1.18,1.41-2.09,2.98-2.53,4.79c-0.07,0.31-0.13,0.62-0.18,0.93
	c-0.09,0.49,0.04,0.82,0.44,1.21c0.66,0.64,1.43,1.1,2.11,1.68c0.71,0.61,1.29,1.37,1.94,2.05c0.12,0.12,0.32,0.17,0.48,0.26
	c0.25,0.13,0.56,0.22,0.73,0.42c0.93,1.1,1.47,2.41,1.94,3.76c0.07,0.21,0.14,0.43,0.23,0.68c0.67-0.24,0.99,0.14,1.13,0.68
	c0.34,1.32,0.64,2.65,0.98,3.97c0.04,0.18,0.18,0.33,0.28,0.5c0.14,0.24,0.34,0.45,0.41,0.71c0.44,1.52,0.54,3.07,0.61,4.66
	c0.09,1.91-0.65,3.5-1.25,5.19c-0.05,0.14-0.06,0.34,0,0.47c0.18,0.37,0.12,0.67-0.16,0.95c-1.78,1.81-3.84,3.19-6.21,4.09
	c-0.4,0.15-0.8,0.32-1.21,0.48C82.57,64.01,81.64,64.22,80.72,64.42z M75.77,31.34c0.83-1.87,1.99-3.45,3.53-4.7
	c0.69-0.56,1.16-1.1,0.9-2.03c-0.01-0.03,0-0.07,0.01-0.1c0.23-1.17,0.45-2.34,0.67-3.48c0.1-0.01,0.05-0.02,0.04,0
	c-0.24,0.23-0.48,0.46-0.7,0.71c-2.09,2.23-3.75,4.71-4.38,7.78c-0.06,0.29-0.25,0.64-0.49,0.78c-0.36,0.21-0.64-0.13-0.89-0.38
	c-2.55-2.64-5.61-4.45-9.07-5.63c-0.11-0.04-0.23-0.05-0.49-0.11c1.32,1.14,2.44,2.26,3.2,3.66c0.29,0.53,0.63,0.84,1.22,0.88
	c0.07,0,0.14,0.03,0.2,0.05C71.71,29.29,73.75,30.21,75.77,31.34z M77.37,17.06c-0.06,0.11-0.14,0.21-0.18,0.32
	c-0.5,1.36-1.08,2.71-1.47,4.1c-0.36,1.31-0.52,2.68-0.77,4.02c-0.02,0.1-0.02,0.21-0.04,0.31c-0.06,0.43-0.34,0.61-0.74,0.56
	c-0.38-0.05-0.56-0.31-0.54-0.71c0.03-0.55,0.18-1.15,0.02-1.64c-0.77-2.24-1.89-4.32-3.17-6.32c-0.29-0.45-0.59-0.89-0.88-1.33
	c-0.06,0.1-0.06,0.15-0.05,0.2c0.83,2.67,1.51,5.38,1.76,8.17c0.07,0.84,0.39,1.36,1.09,1.72c0.15,0.08,0.28,0.2,0.42,0.32
	c0.65,0.53,1.29,1.07,1.96,1.62c0.48-1.78,1.26-3.38,2.31-4.85c0.34-0.47,0.54-0.9,0.37-1.49c-0.1-0.33-0.09-0.69-0.09-1.04
	C77.36,19.71,77.37,18.42,77.37,17.06z M75.26,32.54c-3.28-1.84-6.71-3.22-10.63-2.85c0.09,0.1,0.19,0.15,0.3,0.19
	c2.75,0.94,5.16,2.42,7.12,4.6c0.07,0.08,0.14,0.17,0.23,0.21c0.86,0.3,1.73,0.58,2.49,0.84C74.93,34.6,75.09,33.62,75.26,32.54z
	 M78.71,49.87c-0.51,0.7-1.08,1.42-1.58,2.2c-0.24,0.39-0.35,0.87-0.48,1.32c-0.03,0.12,0.02,0.32,0.11,0.41
	c0.86,0.83,1.83,1.47,3.03,1.68c0.16,0.03,0.35-0.08,0.53-0.1c0.58-0.07,0.66-0.56,0.87-0.97c0.45-0.87,0.94-1.72,1.48-2.7
	C81.36,51.1,80.09,50.51,78.71,49.87z M71.73,50.54c0.41,0.38,1.03,0.99,1.69,1.57c0.35,0.31,0.74,0.59,1.14,0.83
	c0.43,0.25,0.7,0.08,0.93-0.37c0.36-0.73,0.76-1.45,1.19-2.15c0.26-0.43,0.61-0.81,0.98-1.29c-1.41-0.61-2.77-1.2-4.35-1.89
	C72.83,48.28,72.3,49.37,71.73,50.54z M74,54.26c-1.31-1.13-2.63-2.27-3.93-3.39c-0.91,0.73-1.47,1.56-1.75,2.57
	c-0.04,0.14-0.02,0.38,0.07,0.46c1.17,1.08,2.35,2.14,3.46,3.14C72.6,56.07,73.32,55.14,74,54.26z M81.91,55.88
	c0.58,0.25,1.04,0.46,1.51,0.64c0.37,0.14,0.74,0.38,1.13-0.03c0.09-0.09,0.37-0.04,0.55-0.01c0.25,0.05,0.5,0.14,0.75,0.22
	c0.05,0.02,0.1,0.05,0.16,0.07c0.34-0.61,0.69-1.22,1.02-1.83c0.26-0.49,0.51-0.99,0.74-1.45c-1.24-0.61-2.44-1.19-3.65-1.78
	C83.37,53.11,82.66,54.46,81.91,55.88z M76.19,35.12c1-0.5,1.99-0.97,2.94-1.5c0.26-0.15,0.54-0.51,0.55-0.78
	c0.07-1.53,0.44-2.97,1.14-4.33c0.41-0.8,0.9-1.56,1.35-2.34C79.37,27.24,76.17,32.02,76.19,35.12z M81.83,46.09
	c-0.56,0.68-1.2,1.42-1.8,2.2c-0.41,0.53-0.37,0.64,0.24,0.92c0.95,0.43,1.92,0.83,2.88,1.24c0.2-0.06,0.43-0.11,0.65-0.19
	c0.13-0.05,0.31-0.12,0.36-0.23c0.48-0.98,0.94-1.98,1.4-2.98C84.32,46.73,83.12,46.42,81.83,46.09z M75.5,54.62
	c-0.08,0.09-0.22,0.25-0.35,0.41c-0.58,0.7-1.17,1.4-1.75,2.1c-0.24,0.29-0.18,0.55,0.08,0.82c0.78,0.82,1.73,1.35,2.76,1.7
	c0.12-0.24,0.19-0.51,0.36-0.69c0.34-0.37,0.73-0.71,1.11-1.05c0.44-0.4,0.88-0.79,1.23-1.11C77.8,56.08,76.68,55.37,75.5,54.62z
	 M69.15,44.64c-0.42,0.52-0.82,1.01-1.19,1.51c-0.28,0.38-0.53,0.78-0.76,1.19c-0.06,0.12-0.05,0.38,0.03,0.46
	c0.64,0.58,1.29,1.16,1.98,1.68c0.34,0.26,1.2,0.14,1.36-0.15c0.53-0.92,1.02-1.86,1.52-2.8C71.25,45.99,70.21,45.32,69.15,44.64z
	 M81.36,44.24c0.5-1.06,1-2.11,1.46-3.07c-1.05-0.62-2.17-1.28-3.32-1.97c-0.76,0.86-1.44,1.82-1.5,3.09
	c-0.02,0.38,0.11,0.6,0.48,0.75C79.48,43.43,80.47,43.86,81.36,44.24z M75.44,36.97c-0.09,0.06-0.16,0.11-0.23,0.17
	c-0.78,0.64-1.31,1.45-1.7,2.36c-0.04,0.09-0.04,0.25,0.02,0.33c0.63,0.96,1.36,1.83,2.39,2.39c0.35,0.19,0.75,0,0.81-0.4
	c0.15-1.04,0.57-1.95,1.21-2.76c0.23-0.29,0.16-0.47-0.09-0.64c-0.7-0.46-1.41-0.92-2.11-1.37C75.64,37.01,75.54,37,75.44,36.97z
	 M89.57,58.74c-0.34-0.14-0.59-0.31-0.86-0.35c-1.13-0.19-2.27-0.34-2.96-0.44c-1.03,1.45-1.92,2.7-2.82,3.97
	c0.42,0.58,0.42,0.57,1.17,0.29c0.1-0.04,0.2-0.07,0.3-0.11C86.34,61.39,88.03,60.26,89.57,58.74z M76.74,43.63
	c-0.72,0.61-1.59,2.02-1.78,2.92c0.01,0.01,0.02,0.03,0.04,0.04c1.1,0.49,2.19,1,3.3,1.47c0.11,0.05,0.36-0.07,0.46-0.19
	c0.39-0.47,0.75-0.97,1.13-1.45c0.26-0.33,0.53-0.64,0.85-1.03C79.37,44.79,78.08,44.22,76.74,43.63z M85.25,50.83
	c0.84,0.41,1.71,0.82,2.57,1.24c0.39,0.19,0.71-0.03,0.84-0.29c0.49-1.03,0.91-2.1,1.36-3.15c-0.76-0.43-1.42-0.82-2.09-1.2
	c-0.73-0.41-0.82-0.39-1.27,0.34c-0.15,0.24-0.28,0.49-0.39,0.74C85.93,49.25,85.61,50.01,85.25,50.83z M87.66,43.44
	c-1.05-0.59-2.17-1.22-3.35-1.88c-0.6,0.73-1.23,1.58-1.46,2.66c-0.15,0.67-0.06,0.81,0.59,0.98c0.96,0.26,1.92,0.52,2.9,0.72
	c0.17,0.03,0.51-0.19,0.59-0.37C87.22,44.84,87.43,44.11,87.66,43.44z M72.29,40.57c-0.87,0.79-1.49,1.84-1.73,3.1
	c-0.03,0.15,0.1,0.4,0.23,0.48c0.77,0.52,1.56,1.01,2.35,1.49c0.29,0.18,0.6,0.21,0.8-0.14c0.41-0.72,0.8-1.46,1.15-2.09
	C74.16,42.47,73.23,41.53,72.29,40.57z M83.84,58.1c-1.07-0.47-2.01-0.88-2.96-1.29c-0.46,0.4-0.95,0.82-1.42,1.26
	c-0.47,0.44-0.93,0.9-1.48,1.44c1.41,0.51,2.65,0.96,3.9,1.42C82.53,60,83.18,59.06,83.84,58.1z M80.49,38.17
	c0.95,0.83,1.96,1.45,3.12,1.77c0.66,0.18,1.58-0.71,1.3-1.34c-0.53-1.21-1.36-2.21-2.47-2.91C81.78,36.54,81.14,37.35,80.49,38.17z
	 M75.61,60.82c-1.25-0.5-2.39-1.15-3.28-2.2c-0.06-0.07-0.27-0.08-0.36-0.04c-0.67,0.34-1.22,0.83-1.73,1.52
	c1.28,0.89,2.5,1.74,3.68,2.57C74.53,62,75.06,61.42,75.61,60.82z M81.9,62.78c-1.24-1.42-3.08-1.28-4.39-2.1
	c-0.74,0.8-1.43,1.56-2.18,2.38C77.59,63.35,79.7,63.21,81.9,62.78z M87.48,56.78c0.77,0.19,1.56,0.38,2.43,0.59
	c0.36-1.07,0.73-2.17,1.11-3.27c-0.69-0.2-1.29-0.37-1.84-0.53C88.61,54.64,88.05,55.71,87.48,56.78z M69.51,38.46
	c-0.88,1.14-1.51,2.37-1.32,3.89c0.08,0.6,0.13,0.64,0.71,0.49c0.16-0.04,0.34-0.03,0.4-0.03c0.57-0.99,1.1-1.92,1.62-2.83
	C70.48,39.51,70.01,39,69.51,38.46z M79.08,37.79c0.11-0.08,0.24-0.15,0.32-0.25c0.49-0.62,0.97-1.23,1.44-1.86
	c0.56-0.74,0.52-0.94-0.17-1.44c-1.25,0.66-2.46,1.31-3.8,2.01c0.49,0.29,0.85,0.48,1.18,0.71C78.39,37.2,78.7,37.48,79.08,37.79z
	 M73.64,36.47c-0.25-0.09-0.7-0.23-1.13-0.4c-0.33-0.12-0.61-0.06-0.87,0.17c-1.3,1.12-1.41,1.28-0.02,2.58
	c0.39,0.36,0.6,0.3,0.86-0.16C72.86,37.94,73.23,37.23,73.64,36.47z M89.1,44.01c-0.46,0.28-1.03,1.55-0.88,2.01
	c0.02,0.06,0.07,0.12,0.12,0.15c0.43,0.24,0.86,0.48,1.4,0.78C89.51,45.9,89.3,44.95,89.1,44.01z M87.33,41.8
	c0.04-0.03,0.08-0.06,0.13-0.09c-0.38-0.85-0.76-1.7-1.17-2.61c-0.82,1.44-0.7,1.87,0.63,2.51C87.05,41.68,87.19,41.74,87.33,41.8z
	 M90.97,50.11c-0.05-0.01-0.1-0.01-0.14-0.02c-0.32,0.75-0.65,1.51-0.99,2.33c0.39,0.11,0.73,0.21,1.2,0.35
	C91.01,51.81,90.99,50.96,90.97,50.11z M68.43,50.6c-0.52-0.4-1.01-0.77-1.61-1.23c0.28,0.86,0.51,1.58,0.77,2.38
	C67.9,51.32,68.15,50.97,68.43,50.6z M66.75,45.32c0.06,0.01,0.12,0.02,0.18,0.02c0.32-0.4,0.63-0.8,0.95-1.2
	c-0.35-0.29-0.65-0.55-1.05-0.88C66.81,44.03,66.78,44.67,66.75,45.32z M69.38,56.56c-0.03,0.03-0.06,0.05-0.1,0.08
	c0.25,0.56,0.5,1.12,0.77,1.72c0.24-0.2,0.45-0.37,0.7-0.57C70.27,57.35,69.82,56.95,69.38,56.56z"/>
</svg>
