<svg id="Layer_1" data-name="Layer 1" xmlns="http://www.w3.org/2000/svg" viewBox="0 0 300 300"><defs><style>.cls-1{fill:#f7a293;}.cls-2{fill:#fff;}</style></defs><path class="cls-1" d="M148.61,8.8c4.34,1.38,8.92,1.4,13.31,2.93,14.3,5,26.54,20.4,26.58,36.06,0,2.22.42,3.09,3,3.39C211,53.49,226.4,69.76,227,89.45c.36,11.84-3.26,21.89-11.18,30.28a36.24,36.24,0,0,1-14,9.48,4.93,4.93,0,0,0-3.26,3c-7.82,18-22,27.2-41.11,29.89a53.11,53.11,0,0,1-38-8.79A35,35,0,0,1,107.86,141c-1.75-3.23-4.16-4.95-7.61-6.23C86,129.51,76.7,119.39,73.78,104.57c-4-20.58,7.47-40.37,28.23-47,2.7-.87,3.72-1.66,3.59-4.82-.74-17.35,7-30.28,21.85-38.8C132,11.32,137,9.43,142.52,9.58c1,0,2.17.36,2.9-.78Z"/><path class="cls-1" d="M163.24,291.2c-19.53-46-38.76-92-56.85-138.62,8.47,5.22,16.82,10,26.14,13,19.82,6.27,37.75,2.29,54-10,5.51-4.18,11.23-8.24,15.14-14.17.38-.58,1.08-1.15,1.64-.68s.27,1.34,0,2.15q-6.12,22.8-12.11,45.65-9.39,35.74-18.74,71.52c-2.57,9.72-5.31,19.39-7.9,29.11A3.2,3.2,0,0,1,163.24,291.2Z"/><path class="cls-2" d="M138.1,97.67C133,77.83,120.28,68.55,100.59,68.43c6.1-4.26,20.51-5.18,28.63-.36C137.15,72.78,140.9,87.25,138.1,97.67Z"/><path class="cls-2" d="M178.15,51.1c-6.94-18-18.67-27.08-39.79-26.66,3.12-2.47,6.63-3,9.76-3.25,8.8-.86,17.82-2,24.48,6.29,3.47,4.35,4.68,9.39,5.47,14.58C178.53,45,178.15,48.08,178.15,51.1Z"/><path class="cls-2" d="M152.37,95.45c7.57-4.28,15.7-4.52,23.61-3.3,7.21,1.1,11.66,6.54,14,13.26a33.92,33.92,0,0,1,1.22,16.91,37,37,0,0,0-14.35-20.67C169.68,96.62,161.29,94.79,152.37,95.45Z"/><path class="cls-2" d="M136.74,216.74c-.83-3-2.65-4.82-1.05-7.36.49-.77.23-1.8-1.06-2-3.57-.68-3.84-4-5.16-6.33.47-.66.73-.19,1.05-.09,2.69.82,5.53,2.56,8,2.16s3.33-4.07,5-6.23a55.42,55.42,0,0,1,7.25-7.81c2.61-2.33,1.74-3.44-.88-4.78a90.89,90.89,0,0,0-21-7.85,59.45,59.45,0,0,0-9.17-1.78c-2.84-.2-1.66-3.52-3.13-5.55,7.35.45,13.89,2.46,20.34,4.77,5.73,2,11.39,4.28,16.47,7.72,2,1.33,3.36,1.15,5.46-.52a95.34,95.34,0,0,1,34.26-17.41c.19,3.24-.23,5.37-4.08,6.55a88.46,88.46,0,0,0-26.89,13.65c-2,1.5-2.11,2.27-.18,3.68A71.46,71.46,0,0,1,173.76,198c1.75,2,3.19,2.55,5.4.75a25.28,25.28,0,0,1,4.43-2.32c-.48,3.28-3.11,5.87-3.38,8.31-.3,2.62,1.12,5.73,0,8.7-1.63-2.18-3.51-6.4-4.94-6.25-2.88.3-5.52,3-8.25,4.67a.86.86,0,0,0-.28.29c-1.31,2.17-5,2.44-5.14,5.06-.11,2.36,3.12,3.07,4.5,4.92,2.26,3,4.8,5.86,7.08,8.88,2.09,2.77,1.57,7.25-1.07,10.06s-5.5,5.55-7.7,8.91c-1.48,2.27-1.62,3.88-.36,6,2.11,3.61,3.65,7.39,2.61,12.19-2.21-2.83-2.4-6.27-4.41-8.77-.49-.61-.78-1.52-1.6-1.54-1.21,0-.66,1.16-.93,1.8-1.19,2.88-2.44,5.74-2.46,9.84-3.33-4.93-1.33-9,.11-12.86,1-2.59,1-4.32-1.22-6.22-3.18-2.76-5.9-6-9.39-8.46-2.93-2.07-3.61-7.59-1.56-10.71,2.56-3.9,5-7.87,7.77-11.63,1.2-1.64,1.52-2.2-.52-3.5-3.31-2.11-6.95-3.52-10.29-5.51-1.58-.94-2.21-.56-2.84.95S137.84,214.57,136.74,216.74Z"/><path class="cls-1" d="M171.65,201.72c.34,1.43-.58,1.51-1.15,2-3.87,3.32-8.26,6-11.67,9.9-.76.86-1.42,1.4-2.6.32a43.67,43.67,0,0,0-11.13-7c-2.23-1-2.42-1.92-1.1-4.15,2.95-5,7.37-8.53,11.21-12.65.79-.85,1.69-1.41,2.78-.7A74.45,74.45,0,0,1,171.29,201,2,2,0,0,1,171.65,201.72Z"/><path class="cls-1" d="M160.4,249.82c-.64-.58-1.11-1-1.56-1.42-3.36-3.15-6.28-6.77-10.15-9.37-1.6-1.08-1.93-2.32-1-4.34,2.3-4.88,5.75-8.91,8.86-13.2.73-1,1.22-1,2.42-.19,5.11,3.46,8.6,8.3,12,13.28a1.53,1.53,0,0,1-.21,2.3,53.24,53.24,0,0,0-9,11.28A14.06,14.06,0,0,1,160.4,249.82Z"/></svg>