<svg id="Layer_1" data-name="Layer 1" xmlns="http://www.w3.org/2000/svg" viewBox="0 0 300 300"><defs><style>.cls-1{fill:#005e82;}</style></defs><path class="cls-1" d="M112.91,286.46c-.73-1-1.82-.64-2.77-.66a114.53,114.53,0,0,1-33.5-6.15,7.2,7.2,0,0,1-1.27-.95c1.53.18,2.49.37,3.45.39a19,19,0,0,1,3.26.54c2.41.48,4.59-.32,6.92-1.13,4.36-1.52,9-2.26,13.47-3.44a209.26,209.26,0,0,0,35.23-12.72c14.61-6.8,28.5-14.83,41.05-24.93,17.15-13.79,31.74-29.73,39-51,4.47-13.09,3.75-25.86-4.41-37.59a38.66,38.66,0,0,0-4.3-5.09c4.19,7.52,7.38,15.3,7.37,24.27-1.58-.69-1.42-2.18-1.82-3.29-4.86-13.29-13.71-22.26-28-24.53-11.72-1.86-22.56,6.73-24.12,18.59a18.92,18.92,0,0,0,12.25,20.11c.59.22,2.85.55.9,2-5.23,3.88-10.88,6.84-17.54,7.3-9.46.64-15.24-4.43-19.56-12.22-6.88-12.36-3.33-28.49,5-38.88,3.63-4.54,7.54-8.79,12.6-11.7,9.8-5.62,20.27-5.68,30.77-2.65,21.72,6.27,35.41,20.31,39.81,42.68,2.05,10.44-.72,20.39-4.54,30-7.78,19.61-20.42,35.83-36,49.65a136.44,136.44,0,0,1-67.61,32.65,144,144,0,0,1-27.13,2.1,7.56,7.56,0,0,0-2.61.39c7-.12,13.9.4,20.92-.29a148.76,148.76,0,0,0,27.63-5.26,135.48,135.48,0,0,0,42.84-21.58,134.21,134.21,0,0,0,40.72-49.27c6.35-12.88,10.22-26.58,12.66-40.73a139.22,139.22,0,0,0,1.85-33.83c-1.54-21.08-8.3-40.4-21.37-57.3a113.75,113.75,0,0,0-26.31-24.69c5.81,7.29,11.58,14.61,16.1,22.76a73.75,73.75,0,0,1,8.79,26.47,106.9,106.9,0,0,0-11.77-19.18c-10.92-14.47-25-24.26-42.92-27.48-14-2.51-27.79-1.31-39.74,7.57q-15.87,11.79-18,31.67a39.12,39.12,0,0,0,11.4,33c5.54,5.67,12.73,8.75,20.44,10.54,1.07.24,2.14.52,3.53.86a69.05,69.05,0,0,1-17.19,14.68c-8.3,5.14-17.25,8.7-27.22,8.49A36.6,36.6,0,0,1,68.5,148.1c-12.47-10-20-23.08-22.93-38.6-2.25-11.72-1-23.4,2.59-34.76,4.54-14.5,12.26-27.13,22.21-38.62,10.39-12,23.63-18.33,38.8-21.26,10-1.93,20-1.48,30.11-.37,23.28,2.54,43.81,11.76,62.07,25.72,26.5,20.26,43.54,46.95,50.83,79.63,1.54,6.91,2.8,13.87,2.71,21,0,.86-.27,1.83.66,2.44v12.05c-.7,5.16-.23,10.4-1.05,15.56-4,25-13.9,47.43-30.29,66.79-21.39,25.26-48.4,41.09-81,47.2a104,104,0,0,1-13.63,1.25c-2,.1-4-.38-5.92.33Z"/></svg>