<svg id="Layer_1" data-name="Layer 1" xmlns="http://www.w3.org/2000/svg" viewBox="0 0 300 300"><defs><style>.cls-1{fill:#231f20;}</style></defs><path class="cls-1" d="M146.07,202.59q0,1.78-2.33,4.66-20.4,24.27-54.2,24.27-34.59,0-56.09-23.6-21-22.84-21-57.64,0-33.7,20.51-57.2,21.39-24.6,54.42-24.6,35.91,0,56.31,22,2.2,2.44,2.21,4.33,0,2.1-7.7,15.62t-9.7,15.19a3,3,0,0,1-2.22.89c-.37,0-2.21-1.48-5.54-4.44A58.62,58.62,0,0,0,109,113.81a39.78,39.78,0,0,0-18.18-4.43q-16.29,0-26,12.19-9,11.31-9,27.93,0,16.84,9,28.27,9.75,12.4,26,12.41A41.19,41.19,0,0,0,109.15,186a56.76,56.76,0,0,0,11.53-7.76q4.88-4.22,5.43-4.21a3.07,3.07,0,0,1,2.22,1.22q1.77,2,9.64,13.85Q146.07,201.37,146.07,202.59Z"/><path class="cls-1" d="M287.5,202.59q0,1.78-2.33,4.66-20.39,24.27-54.2,24.27-34.58,0-56.09-23.6-20.94-22.84-20.95-57.64,0-33.7,20.51-57.2,21.39-24.6,54.42-24.6,35.92,0,56.31,22,2.22,2.44,2.22,4.33,0,2.1-7.71,15.62T270,125.67a3,3,0,0,1-2.22.89q-.56,0-5.54-4.44a58.62,58.62,0,0,0-11.75-8.31,39.85,39.85,0,0,0-18.18-4.43q-16.29,0-26.05,12.19-9,11.31-9,27.93,0,16.84,9,28.27,9.75,12.4,26.05,12.41A41.19,41.19,0,0,0,250.59,186a56.76,56.76,0,0,0,11.53-7.76Q267,174,267.55,174a3.07,3.07,0,0,1,2.21,1.22q1.78,2,9.65,13.85Q287.5,201.37,287.5,202.59Z"/></svg>