<svg id="Layer_1" data-name="Layer 1" xmlns="http://www.w3.org/2000/svg" viewBox="0 0 300 300"><defs><style>.cls-1{fill:#003547;}</style></defs><path class="cls-1" d="M28.54,12.5c1.47,0,2.95.11,4.42.11q117.18,0,234.34-.09c3.78,0,4.41,1.07,4.09,4.51q-5.19,55.38-10.13,110.78Q255.52,192.39,250,257c-.21,2.43-1.07,3.6-3.49,4.26q-46.84,12.84-93.61,25.92c-3.29.92-6.08-.24-8.93-1-29.56-8.14-59.07-16.46-88.64-24.53-3.38-.93-4.47-2.31-4.76-5.84-2.41-28.88-5.13-57.73-7.7-86.6q-3.91-43.84-7.74-87.7Q32.27,49.75,29.34,18c-.06-.66.18-1.53-.8-1.82ZM150.36,203.68c-10.49-2.91-21-5.9-31.49-8.66-1.94-.51-2.49-1.23-2.63-3.14-.47-6.35-1.29-12.68-1.74-19-.17-2.31-1.09-2.75-3.18-2.72-8.11.11-16.22.13-24.33,0-2.55,0-3.41.54-3.14,3.27,1.36,14.16,2.57,28.33,3.74,42.5.15,1.89,1,2.34,2.67,2.78,17.23,4.76,34.41,9.7,51.66,14.36,3.06.83,6,2.71,9.43,1.83C170.22,229.7,189,224.37,208,219.5c3.91-1,5.16-2.83,5.09-6.38a16.31,16.31,0,0,1,.09-1.84q2-22.26,4-44.53,1.74-19.71,3.51-39.41c.15-1.66.25-2.72-2.08-2.71-22.73.13-45.46.14-68.2.19-12.39,0-24.78-.13-37.17,0-2.29,0-3.18-.55-3.35-3q-.9-12.45-2.21-24.87c-.27-2.54.28-3.34,3-3.31,13.24.11,26.49,0,39.74,0,23.24.05,46.48,0,69.71.23,3.23,0,3.86-1.29,4.06-3.92.62-7.91,1.23-15.83,2.11-23.72.3-2.69-.69-3-3-3-14.54.06-29.07,0-43.61,0-9.77,0-19.54.16-29.31.24q-19.92-.08-39.83-.15c-11.06,0-22.13.08-33.2-.08-2.69,0-3.51.8-3,3.31.14.71.06,1.47.13,2.2q2.18,24,4.36,48c1,11.61,2,23.22,3.09,34.83.15,1.61-.24,3.63,2.82,3.6,21.88-.16,43.77-.14,65.65-.18,11.11.06,22.22.18,33.32.11,2.72,0,3.87.4,3.49,3.56-1.09,9.34-1.82,18.73-2.74,28.09-.77,7.74-.85,7.56-8.35,9.67C167.51,198.84,158.76,200.63,150.36,203.68Z"/></svg>