<svg id="Layer_1" data-name="Layer 1" xmlns="http://www.w3.org/2000/svg" viewBox="0 0 300 300"><defs><style>.cls-1{fill:#003547;}</style></defs><path class="cls-1" d="M150.2,12.58c39.15,0,78.3.05,117.45-.08,3.52,0,4.24.88,3.88,4.3-1.55,15-2.82,29.94-4.17,44.92q-2.91,32.23-5.78,64.47-2.74,30.94-5.45,61.9c-2,23-4.09,45.93-6,68.9-.26,3.12-1.43,4.56-4.56,5.41-28.15,7.66-56.33,15.27-84.33,23.47-8.2,2.4-15.6,2-23.67-.32-27.9-8.12-56-15.71-84-23.42-2.34-.64-3.32-1.52-3.54-4.15-2.36-28-4.88-56-7.4-84q-5-55.44-10-110.88C31.2,47.38,30,31.65,28.44,15.94c-.29-3,.49-3.42,3.2-3.41Q90.92,12.65,150.2,12.58Zm0,143c1.34.09,2.69.25,4,.26q15,0,30,0c1.82,0,3,0,2.75,2.53-1.1,9.89-2,19.81-2.95,29.71-.61,6.42-.6,6.34-6.9,8-9,2.36-18.07,4.47-26.89,7.51-10.34-2.73-20.65-5.63-31.06-8.07-3.34-.79-4.26-2.47-4.46-5.47-.41-6.14-1.06-12.27-1.49-18.41-.11-1.6-.69-2.09-2.24-2.08-9.14.05-18.27.07-27.41,0-2,0-2,.77-1.87,2.45,1.39,14.45,2.74,28.91,3.92,43.39.19,2.34.87,3.3,3.21,3.94,19.93,5.4,39.83,11,59.73,16.49.91.25,1.84.93,2.71-.09,19.88-5.45,39.75-10.93,59.66-16.28,1.69-.45,1.76-1.44,1.87-2.64,1.68-18.51,3.41-37,5-55.53,1.43-16.55,2.65-33.12,4.08-49.68q1.92-22.23,4.16-44.45c.33-3.16-.82-3.66-3.61-3.65-19.37.1-38.75,0-58.13.06-4.68,0-9.36.16-14,.24-24.57,0-49.14,0-73.71-.18-3.48,0-2.65,2.06-2.5,3.86.66,7.73,1.55,15.45,2,23.18.17,2.81,1.13,3.41,3.78,3.4,23.46-.11,46.92-.08,70.39-.09,13.31.07,26.62.18,39.93.15,2.29,0,2.83.46,2.52,2.89q-1.56,12.06-2.49,24.2c-.21,2.69-.7,3.68-3.76,3.66-12.07-.08-24.15-.46-36.22.17-22.59,0-45.19,0-67.79-.07-2.79,0-3.67.7-3.36,3.5.85,7.83,1.68,15.68,2.13,23.54.16,2.91,1,3.66,3.82,3.64C106.71,155.51,128.45,155.57,150.18,155.57Z"/></svg>