<svg id="Layer_1" data-name="Layer 1" xmlns="http://www.w3.org/2000/svg" viewBox="0 0 300 300"><defs><style>.cls-1{fill:#f1f3ba;}.cls-2{fill:#f7a293;}.cls-3{fill:#fff;}</style></defs><path class="cls-1" d="M147.15,96.85c-8.21-4.22-14-11.06-19.64-18.07-1.44-1.81-2.42-3.06-5-1.07-5.49,4.18-11.67,6.85-18.83,6.84-7.6,0-14-3-19.87-7.42A67,67,0,0,1,71.3,64.76c-1.42-1.83-2.51-2.28-5.13-.9C58,68.18,49.36,71.59,40,73c-8.42,1.24-16.43.46-24.09-3.19A33,33,0,0,1,6.41,62.4c-1.16-1.23-1.51-1.8.36-2.66,7.1-3.24,14.05-6.8,21.2-9.92,9.86-4.3,19.8-8.46,29.88-12.25q17.08-6.42,34.68-11.23c8.29-2.27,16.7-4,25.14-5.43C128.89,19,140.23,18.79,151.59,19a125.52,125.52,0,0,1,43.84,9.12A139.47,139.47,0,0,1,233,50.81a213.56,213.56,0,0,1,25,24.66c12,13.71,22.42,28.47,32.42,43.61.77,1.16,1.49,2.36,2.27,3.53,2.56,3.86,2.61,3.92-1.19,6.36-12.4,8-27.11,6.7-37.76-3.64a34.29,34.29,0,0,1-8.24-12.11c-.9-2.28-1.85-1.85-3.23-1a39.6,39.6,0,0,1-14.17,5.36,39,39,0,0,1-24.63-3.38c-8.17-3.9-14.62-10-20.7-16.47-1.57-1.67-3-2-5.18-1.29a63.14,63.14,0,0,1-22.37,2.73c-1.08-.08-2.15-.33-3.22-.5A4.32,4.32,0,0,1,147.15,96.85Z"/><path class="cls-2" d="M147.15,96.85l4.9,1.84q-8.9,23.13-17.79,46.25c-5.43,14-10.95,28-16.39,42.05-5,12.83-9.88,25.68-14.83,38.51q-9.24,24-18.53,47.91c-.75,1.94-1.48,3.89-2.33,5.77-.65,1.43-1.84,2.4-3.4,1.57s-1.68-2-1-3.83c6.06-15.48,11.92-31,17.9-46.55,5-13,10.13-26,15.17-39q8.06-20.78,16-41.55,8.65-22.44,17.31-44.88C145.25,102.25,146.18,99.54,147.15,96.85Z"/><path class="cls-3" d="M180.43,23.62a160,160,0,0,1,21.82,14,110.73,110.73,0,0,1,14.26,13.18c11,12.15,19.63,25.66,23.89,41.73.81,3.08,1.31,6.22,2.22,9.28.4,1.32.38,2.89-1.12,3.81-7.58,4.67-15.72,7.64-24.72,7-8.38-.59-15.7-4.22-22.59-8.88-3.86-2.62-6.92-6.13-10.58-9a2.31,2.31,0,0,1-.63-2.37c1.65-7.49,3.28-15,4.47-22.58a118.41,118.41,0,0,0,.84-12.39,58.69,58.69,0,0,0-3.19-23.8C183.94,30.45,182.27,27.5,180.43,23.62Z"/><path class="cls-3" d="M179.36,24.42c-2.09,1.25-4.17,2.52-6.28,3.74-14.14,8.21-24.64,20.56-36,31.93-6.26,6.29-11.57,13.62-19.79,17.59-9.34,4.5-18.53,3.66-27.26-1.78-6.47-4-11.66-9.46-16.35-15.41-.79-1-.76-1.34.39-1.93C84.26,53.31,93,45.82,102.94,40.29a111.07,111.07,0,0,1,31.42-12.13A214.93,214.93,0,0,1,162,24.36C167.81,23.93,173.49,24.28,179.36,24.42Z"/></svg>