<svg id="Layer_1" data-name="Layer 1" xmlns="http://www.w3.org/2000/svg" viewBox="0 0 300 300"><defs><style>.cls-1{fill:#003547;}</style></defs><path class="cls-1" d="M183.28,135.42c4.44-.22,8.5-.41,12.55-.64l28.28-1.58c5.07-.29,10.15-.52,15.22-.9,10.28-.79,18.5,6.84,18,17.15-.36,7.64-1.18,15.26-1.79,22.88q-1.1,13.53-2.2,27-1.26,15.45-2.53,30.89a44.73,44.73,0,0,1-.86,7,16.23,16.23,0,0,1-18.76,11.88A16.46,16.46,0,0,1,218,231.36c.84-9,1.47-17.92,2.2-26.88q1.25-15.45,2.53-30.89c.2-2.44.37-4.89.58-7.67l-22.05,1.2c7.44,15.77,10.09,32.11,7.53,49.2a82.77,82.77,0,0,1-21.48,44.57l-21-21c20.36-22.71,16.54-55.39-2.07-74-18.78-18.79-51.7-22.21-74.06-2l-21-21c1.63-1.39,3.38-3,5.24-4.44a83.18,83.18,0,0,1,36.68-16.65,4.53,4.53,0,0,0,2.4-1.25q19.29-21.85,38.5-43.8c.33-.37.64-.77,1.1-1.34l-22.91-13.3L115.5,75.15c-4.34,3.86-8.66,7.75-13,11.59A16.29,16.29,0,1,1,80.72,62.49Q98.93,46.14,117.23,29.9a16,16,0,0,1,19.14-2q37.31,21.62,74.56,43.34C220,76.56,222.21,90,215.37,98.59c-4.12,5.21-8.68,10.06-13.06,15.06q-9,10.21-17.92,20.4C184.1,134.38,183.84,134.73,183.28,135.42Z"/><path class="cls-1" d="M60.34,152.7l21.22,21.23A53.79,53.79,0,0,0,89,242.73a53.89,53.89,0,0,0,67.19,5.92l21.19,21.16c-30,24.2-78.21,25-110.08-6.65S36,183.07,60.34,152.7Z"/><path class="cls-1" d="M195.28,39.69a27.31,27.31,0,1,1,27.1,27.44A27.18,27.18,0,0,1,195.28,39.69Z"/></svg>