<svg id="Layer_1" data-name="Layer 1" xmlns="http://www.w3.org/2000/svg" viewBox="0 0 300 300"><defs><style>.cls-1{fill:#003547;}.cls-2{fill:#f1f3ba;}.cls-3{fill:#fff;}</style></defs><path class="cls-1" d="M262.3,217.64c-2.34,6.73-7,12-11.26,17.47a128,128,0,0,1-48.75,37.83,118.23,118.23,0,0,1-38.81,10.27c-11.41-3.93-19.23-12.39-26.06-21.64-13.93-18.84-20.83-40.76-26-63.23a429.05,429.05,0,0,1-10.34-78.45c-.22-5.27-2-10.51-.16-15.79,1.21-1.6,3.1-1.89,4.85-2.11a41.6,41.6,0,0,0,27.26-14.45,3.9,3.9,0,0,1,2.09-1.24c7.1,1.84,12.48,6.78,18.41,10.59,20.78,13.39,41.47,27,60.52,42.81,15.39,12.81,29.53,26.77,39.54,44.31C259.54,194.36,263.69,205.33,262.3,217.64Z"/><path class="cls-2" d="M101.59,104c.55,16.61,1.94,33.14,3.8,49.67a377.74,377.74,0,0,0,9.2,51.69c5.13,19.94,11.76,39.34,24.36,56.08,5.9,7.84,12.81,14.62,21.48,19.45,1.13.63,2.5,1,3,2.36a123.46,123.46,0,0,1-62.19-8.82,131.72,131.72,0,0,1-34-20.59c-14.45-12-25.44-26.58-33.91-43.13-2.44-4.76-5.14-9.58-5.79-15.1-3.17-20.3,1.05-39.57,8.92-58.1,7.08-16.69,17.29-31.29,31.76-42.61,2.47-1.93,4.77-4.16,8.07-4.66,1.86.1,2.84,1.48,3.92,2.71a25.27,25.27,0,0,0,16.11,8.74C98.28,101.9,100.31,102.14,101.59,104Z"/><path class="cls-2" d="M262.3,217.64c-2.46-3.55-.73-7.65-1.51-11.51-2.62-12.94-8.87-23.9-16.68-34.21-15.25-20.12-35-35.35-55.2-49.88-17.36-12.45-35.45-23.83-53.44-35.35-.55-1.58.22-2.92.82-4.27,3.58-8,4.29-15.94.43-24a3,3,0,0,1-.23-2.85c5.95-3.93,12.89-5.24,19.58-7,19.59-5.2,39.38-8.16,59.64-4.07,10.61,2.15,20.42,5.9,28.47,13.41,17.72,17.47,27.65,39,33.21,62.93,3.09,13.35,3.45,26.84,2.73,40.31a124,124,0,0,1-10.27,42.28C267.73,208.34,266.11,213.58,262.3,217.64Z"/><path class="cls-1" d="M244.18,57.88c-7.54-4.27-15-8.76-23.51-10.93-18.13-4.6-36.17-3.28-54.27.45-10.14,2.1-19.87,5.53-29.75,8.49A4.75,4.75,0,0,1,133.31,54c-5.16-5.53-11.69-7.65-19-7.8a6.22,6.22,0,0,1-3.76-.93c-1.27-1.77-.5-3.55.24-5.13,3.37-7.11,6.48-14.36,10.81-21,10.34-1.64,20.66-3.62,31.21-3.13,23.11,1.07,44.8,6.65,64.58,19.24C227.37,41.66,236.63,48.69,244.18,57.88Z"/><path class="cls-1" d="M76.59,90.73c-14.87,8.82-25.23,21.82-33.7,36.5A117.54,117.54,0,0,0,28.83,168.9a162.58,162.58,0,0,0-1.26,26.67c-4.09-8.9-5.52-18.41-7-28-1.26-8.09-1.06-16.17-.77-24.21A128,128,0,0,1,39.6,78.45c2.49-3.94,5.27-7.7,7.92-11.55a58.43,58.43,0,0,1,23-3.32,10,10,0,0,1,6.08,1.87c1.08,1.33.79,2.82.32,4.21a26.52,26.52,0,0,0,0,17.35C77.26,88.23,77.61,89.56,76.59,90.73Z"/><path class="cls-2" d="M76.59,66c-9-2.47-17.79-.55-26.58,1.22-1,.2-1.78.84-2.49-.33,19.14-24.49,43.71-40.57,74-47.73-.48,4.75-3.63,8.37-5.43,12.57-1.87,4.35-4.65,8.3-5.56,13.06-1,1.43-2.58,1.28-4,1.56-11.32,2.25-20.79,7.35-27,17.44C78.86,64.87,78.29,66.24,76.59,66Z"/><path class="cls-3" d="M76.59,66c6.12-11.32,15.79-17.82,28.14-20.62a47,47,0,0,1,5.84-.59C121,44.47,130.18,47,136.65,55.89c6.61,10.53,4.66,20.74-1.18,30.8-8.54,11.14-20.31,16-33.88,17.27-10.12-1-18.94-4.53-25-13.23A31.15,31.15,0,0,1,76.59,66Z"/></svg>