<svg id="Layer_1" data-name="Layer 1" xmlns="http://www.w3.org/2000/svg" viewBox="0 0 300 300"><defs><style>.cls-1{fill:#f7a293;}</style></defs><path class="cls-1" d="M176,211.6c0,18.7-.36,37.42.28,56.1.15,4.3,3.91,8.42,5.72,12.74.79,1.89.86,4.09,1.26,6.15-2,.15-4.1.87-5.88.36-13-3.7-19.1-11.48-19.45-25.61-.4-16.06-.21-32.14-.21-48.22,0-3.14-.13-5.81-4.78-4.29,0,2.83.06,5.62,0,8.41-.41,16.76-.53,33.53-1.42,50.27-.52,9.78-10,19-19.68,20-1.66.18-3.47-1-5.2-1.62.63-1.52,1.26-3,1.9-4.57,1.68-3.95,4.16-7.77,4.85-11.89,1-6.05,1-12.31,1-18.48.13-13.21,0-26.43,0-39.65l-1.73-.59c-1.19,3.36-3.26,6.68-3.41,10.08-.59,13.58-.61,27.18-.78,40.77-.16,13.18-18.11,23.44-30.73,16.53,2.34-2.15,4.26-4.34,6.59-6,5.38-3.72,8-8.44,7.76-15.18-.36-8.61-.08-17.25-.08-26.09-7.75,0-14.92.37-22-.08-13.94-.89-24-8.09-29.61-20.71-4.36-9.78-10.14-18.09-19.27-24-1.4-.89-2.07-2.94-3.07-4.46,1.67-.75,3.29-2,5-2.17,7-.79,12.81,2.09,17.49,7.07,3.74,4,7.12,8.31,10.63,12.5,9.35,11.15,26.38,14.89,39.39,8.53a7.1,7.1,0,0,0,3-2.73c3.38-6.21,6.6-12.51,9.65-18.34-8.9-2.11-19.25-4-29.21-7.05-28-8.69-45.36-30.73-47.55-59.86a204.4,204.4,0,0,1-.64-25.35c.6-12,5.68-22.48,13.46-31.57a9.73,9.73,0,0,0,2.37-9.54,64.09,64.09,0,0,1,1.16-33.48C65,12.61,66.26,11.3,73.43,13.5c9.36,2.88,18.95,6,27.32,10.87,7.57,4.43,13.92,5.75,22.8,3.95,21.77-4.39,43.86-3.73,65.8.32a12,12,0,0,0,7.33-1.26c11.29-6.21,22.41-12.66,35.44-14.73,4.81-.76,7.56.7,9.1,5.49,3.35,10.38,3.22,20.87,1.55,31.43-.57,3.55,0,6.31,2.45,9.14,14.45,16.52,18.18,36.2,16.2,57.37a175.78,175.78,0,0,1-2.76,18.83c-4.78,23.29-19,38.1-41.64,44.64-10.29,3-20.94,4.72-32.08,7.16,9,5.71,12.6,14.72,13.19,24.78.68,11.8.53,23.65.7,35.48a45.14,45.14,0,0,1-.23,6.88c-1.19,8.62,1.83,15.15,9.22,19.79,1.68,1.05,3,2.66,5.24,4.68-8,3.35-14.63,2.08-21.1-1-6.23-3-9.88-7.81-10-14.94-.21-12-.33-24-.67-36a63.16,63.16,0,0,0-1.28-11c-.33-1.62-1.8-3-2.75-4.49Z"/></svg>