<svg id="Layer_1" data-name="Layer 1" xmlns="http://www.w3.org/2000/svg" viewBox="0 0 300 300"><defs><style>.cls-1{fill:#003547;}</style></defs><path class="cls-1" d="M208.19,186.71a56.09,56.09,0,0,1-20.77-2.34C176,180.72,169.27,172.23,164.66,162a84,84,0,0,1-5.41-16.37c-1-4.46-4.44-6.73-9.28-6.7s-8.87,1-10.36,6.57a133.35,133.35,0,0,1-9.2,23.62c-4.62,9.53-13,13.91-23.3,15.89a107.63,107.63,0,0,1-26.94,1.7c-7.09-.41-14.36-1.17-21.08-3.28-8.41-2.66-12-10.29-14.37-18.23-1.87-6.29-3.86-12.61-4.84-19.06a19.55,19.55,0,0,0-7.29-12.72c-3.12-2.56-3.75-6-3.84-9.54-.13-5.11,2.51-7.28,7.55-7.93A293.46,293.46,0,0,1,75,113.14a238.57,238.57,0,0,1,48.65,4.7,161.34,161.34,0,0,0,26.88,3.84c6.14.24,12.42-1.67,18.56-3,8.91-2,18-2.43,27-3.88,9.5-1.55,19.1-1.18,28.48-1.3s19.36-.54,29,1.34c3,.58,6.13.69,9.2,1,3.45.39,6.32.92,7.71,4.66,1.71,4.59,1,9.48-2.43,11.9-7.07,5.07-8.78,12.3-10.6,19.8-1.28,5.29-2.34,10.66-4,15.81-3.53,10.74-9.56,15.59-21.15,16.86C224.17,185.77,216.27,187.27,208.19,186.71Z"/></svg>