<svg id="Layer_1" data-name="Layer 1" xmlns="http://www.w3.org/2000/svg" viewBox="0 0 300 300"><path d="M103.26,12.48a142.65,142.65,0,0,0-38.8,5.69s66.86,11.35,72.42,57.5C86.07,2.42,30.65,91,30.65,91c11.56-3,44.64-12,66.74-8.23,15.11,2.59,29.85,16.3,29.21,16.13-36,8.86-93.25,169.19-83.53,182.21,8.66,9.95,17.34,6.56,26,1.5,4.29-34,37.77-183,78.73-171h0c3.45,1.18,6.71,3.25,6.89,6.42.34,6-3.55,15.87-2.64,22.72,2.13,15.87,5.24,21.39,9.76,26.93,10.8-6.07,21.13-27.95,23.27-39.29,9.67,4.23,25.22,14,37.91,50.48,6.63-34.14-2.94-61.08-34.33-73,13.59-5.87,72.77,23.86,80,40.44,7-29.89-42.69-66.46-84.08-64.52,7.94-2.07,16.66.35,25-5.76,11.13-8.2,24.12-15.26,36.22-22.84-40.7-17.7-78.25-9-80.89,9.36-2.08-40.66-33.64-50.14-61.63-50Z"/></svg>